<svg width="64" height="64" viewBox="0 0 64 64" fill="none" xmlns="http://www.w3.org/2000/svg">
  <defs>
    <linearGradient id="grad2" x1="0%" y1="0%" x2="100%" y2="100%">
      <stop offset="0%" style="stop-color:#9333ea"/>
      <stop offset="50%" style="stop-color:#3b82f6"/>
      <stop offset="100%" style="stop-color:#9333ea"/>
    </linearGradient>
  </defs>
  <!-- Solid G with vector dots overlay -->
  <path d="M48 12 Q56 12 56 20 L56 24 L48 24 L48 20 Q48 16 44 16 L24 16 Q16 16 16 24 L16 40 Q16 48 24 48 L44 48 Q48 48 48 44 L48 36 L32 36 L32 32 L52 32 L52 44 Q52 52 44 52 L24 52 Q12 52 12 40 L12 24 Q12 12 24 12 Z"
        fill="url(#grad2)" opacity="0.9"/>
  <!-- Scattered vector dots -->
  <circle cx="20" cy="20" r="2.5" fill="white" opacity="0.9"/>
  <circle cx="44" cy="20" r="2" fill="white" opacity="0.7"/>
  <circle cx="32" cy="32" r="3" fill="white" opacity="0.9"/>
  <circle cx="24" cy="44" r="2" fill="white" opacity="0.7"/>
  <circle cx="44" cy="44" r="2.5" fill="white" opacity="0.8"/>
  <!-- Connection lines between dots -->
  <line x1="20" y1="20" x2="32" y2="32" stroke="white" stroke-width="1" opacity="0.4"/>
  <line x1="44" y1="20" x2="32" y2="32" stroke="white" stroke-width="1" opacity="0.4"/>
  <line x1="32" y1="32" x2="24" y2="44" stroke="white" stroke-width="1" opacity="0.4"/>
  <line x1="32" y1="32" x2="44" y2="44" stroke="white" stroke-width="1" opacity="0.4"/>
</svg>
